<svg width="100" height="100" viewBox="0 0 100 100" fill="none" xmlns="http://www.w3.org/2000/svg">
<path fill-rule="evenodd" clip-rule="evenodd" d="M50 100C77.6142 100 100 77.6142 100 50C100 22.3858 77.6142 0 50 0C22.3858 0 0 22.3858 0 50C0 77.6142 22.3858 100 50 100ZM36.4013 82.2505C40.6617 84.0835 45.2194 85 50.0743 85C54.8301 85 59.3383 84.0835 63.5987 82.2505C67.8592 80.4176 71.5747 77.9158 74.7452 74.7452C77.9158 71.5747 80.4176 67.8592 82.2505 63.5987C84.0835 59.3383 85 54.7806 85 49.9257C85 45.1699 84.0835 40.6617 82.2505 36.4013C80.4176 32.1408 77.9158 28.4253 74.7452 25.2548C71.5747 22.0842 67.8592 19.5824 63.5987 17.7495C59.3383 15.9165 54.8301 15 50.0743 15C45.2194 15 40.6617 15.9165 36.4013 17.7495C32.1408 19.5824 28.4253 22.0842 25.2548 25.2548C22.0842 28.4253 19.5824 32.1408 17.7495 36.4013C15.9165 40.6617 15 45.1699 15 49.9257C15 54.7806 15.9165 59.3383 17.7495 63.5987C19.5824 67.8592 22.0842 71.5747 25.2548 74.7452C28.4253 77.9158 32.1408 80.4176 36.4013 82.2505ZM33.1316 73.7049C37.9866 77.2718 43.6341 79.0552 50.0743 79.0552C53.2449 79.0552 56.2668 78.5598 59.1401 77.569C58.5456 70.3362 57.109 63.3015 54.8302 56.465C50.3716 57.9512 46.2845 60.1557 42.569 63.0786C38.8535 66.0014 35.7077 69.5435 33.1316 73.7049ZM60.6263 54.9788C61.6171 58.1493 62.4593 61.419 63.1529 64.7877C63.8464 68.1564 64.3914 71.5747 64.7877 75.0425C68.3546 72.9618 71.3517 70.2619 73.7792 66.9427C76.2067 63.6235 77.8167 59.8832 78.6093 55.7219C76.8259 55.2265 75.0672 54.8549 73.3333 54.6072C71.5994 54.3595 69.8903 54.2357 68.2059 54.2357C65.9271 54.2357 63.4006 54.4834 60.6263 54.9788ZM20.9448 51.2633C21.242 58.397 23.8181 64.54 28.673 69.6921C31.5464 65.2335 35.0637 61.419 39.2251 58.2484C43.3864 55.0778 47.9441 52.6504 52.8981 50.966C52.5018 49.678 51.9568 48.2909 51.2633 46.8047C47.0028 48.39 42.6681 49.5541 38.259 50.2972C33.85 51.0403 29.4161 51.4119 24.9575 51.4119H23.0998L20.9448 51.2633ZM68.2059 48.4395C71.7728 48.4395 75.4388 48.8854 79.2038 49.7771C79.2038 43.8323 77.4699 38.4324 74.0021 33.5775C68.6518 38.2343 62.8556 41.9498 56.6136 44.724C57.0099 45.5166 57.3567 46.3093 57.6539 47.1019C57.9512 47.8946 58.298 48.6872 58.6943 49.4798C60.2796 49.0835 61.8648 48.811 63.4501 48.6624C65.0354 48.5138 66.6207 48.4395 68.2059 48.4395ZM21.242 45.4671C21.8365 45.5662 22.431 45.6157 23.0255 45.6157H24.9575C33.0821 45.6157 40.959 44.2781 48.5881 41.603C45.2194 35.3609 41.2562 29.5152 36.6985 24.0658C32.5372 26.2456 29.0941 29.218 26.3694 32.983C23.6447 36.7481 21.9356 40.9094 21.242 45.4671ZM42.4947 21.8365C44.7735 24.6108 46.879 27.4593 48.811 30.3822C50.7431 33.305 52.5018 36.3022 54.0871 39.3737C56.9604 38.0856 59.7346 36.5747 62.4098 34.8408C65.0849 33.1069 67.7105 31.1996 70.2866 29.1189C67.5124 26.4437 64.3914 24.3878 60.9236 22.9512C57.4558 21.5145 53.8393 20.7962 50.0743 20.7962C48.7863 20.7962 47.4982 20.8953 46.2102 21.0934C44.9222 21.2916 43.6837 21.5393 42.4947 21.8365Z" fill="#F5F5F5"/>
</svg>
