<svg width="69" height="69" viewBox="0 0 69 69" fill="none" xmlns="http://www.w3.org/2000/svg">
<path d="M27 17.126C27.3196 17.0438 27.6547 17 28 17H32V25H28C27.6547 25 27.3196 24.9562 27 24.874C25.2748 24.4299 24 22.8638 24 21C24 19.1362 25.2748 17.5701 27 17.126Z" fill="#82D3E6"/>
<path d="M41 25C41.3453 25 41.6804 24.9562 42 24.874C43.7252 24.4299 45 22.8638 45 21C45 19.1362 43.7252 17.5701 42 17.126C41.6804 17.0438 41.3453 17 41 17H37V25H41Z" fill="#82D3E6"/>
<path d="M24 34C24 32.1362 25.2748 30.5701 27 30.126C27.3196 30.0438 27.6547 30 28 30H32V38H28C27.6547 38 27.3196 37.9562 27 37.874C25.2748 37.4299 24 35.8638 24 34Z" fill="#82D3E6"/>
<path d="M28 43C27.6547 43 27.3196 43.0438 27 43.126C25.2748 43.5701 24 45.1362 24 47C24 49.2091 25.7909 51 28 51C29.8638 51 31.4299 49.7252 31.874 48C31.9562 47.6804 32 47.3453 32 47V43H28Z" fill="#82D3E6"/>
<path d="M37 34C37 31.7909 38.7909 30 41 30C43.2091 30 45 31.7909 45 34C45 36.2091 43.2091 38 41 38C38.7909 38 37 36.2091 37 34Z" fill="#82D3E6"/>
<path fill-rule="evenodd" clip-rule="evenodd" d="M34.5 69C53.5538 69 69 53.5538 69 34.5C69 15.4462 53.5538 0 34.5 0C15.4462 0 0 15.4462 0 34.5C0 53.5538 15.4462 69 34.5 69ZM41 12H28C23.0294 12 19 16.0294 19 21C19 23.5552 20.0649 25.8618 21.775 27.5C20.0649 29.1382 19 31.4448 19 34C19 36.5552 20.0649 38.8618 21.775 40.5C20.0649 42.1382 19 44.4448 19 47C19 51.9706 23.0294 56 28 56C32.9706 56 37 51.9706 37 47V42.0645C38.205 42.6633 39.5632 43 41 43C45.9706 43 50 38.9706 50 34C50 31.4448 48.9351 29.1382 47.225 27.5C48.9351 25.8618 50 23.5552 50 21C50 16.0294 45.9706 12 41 12Z" fill="#82D3E6"/>
</svg>
