<svg width="100" height="100" viewBox="0 0 100 100" fill="none" xmlns="http://www.w3.org/2000/svg">
<path fill-rule="evenodd" clip-rule="evenodd" d="M50 100C77.6142 100 100 77.6142 100 50C100 22.3858 77.6142 0 50 0C22.3858 0 0 22.3858 0 50C0 77.6142 22.3858 100 50 100ZM24.2354 23.6938C31.1109 16.9621 40.3779 13.2356 49.9997 13.3334C59.6215 13.2356 68.8884 16.9621 75.7639 23.6938C82.6394 30.4256 86.5608 39.6117 86.6663 49.2334C86.6217 56.822 84.1801 64.2025 79.6903 70.3205C75.2005 76.4386 68.8922 80.9814 61.6663 83.3001C59.833 83.6667 59.1663 81.5667 59.1663 81.5667V71.7334C59.2679 70.5065 59.0964 69.2724 58.6642 68.1196C58.2319 66.9669 57.5496 65.9243 56.6663 65.0667C64.733 64.1667 73.333 61.1334 73.333 47.3334C73.3345 43.7375 71.9357 40.2822 69.433 37.7001C70.5469 34.617 70.4154 31.2211 69.0663 28.2334C69.0663 28.2334 66.0663 27.2668 59.0663 31.9001C53.06 30.2995 46.7393 30.2995 40.733 31.9001C33.833 27.2668 30.733 28.2334 30.733 28.2334C29.384 31.2211 29.2524 34.617 30.3663 37.7001C27.9205 40.3305 26.5936 43.809 26.6663 47.4001C26.6663 61.1668 35.1997 64.2334 43.333 65.1334C42.0126 66.4076 41.186 68.108 40.9997 69.9334C39.1877 70.9355 37.0546 71.1861 35.0597 70.6312C33.0648 70.0764 31.3674 68.7605 30.333 66.9668C29.7394 65.9673 28.9272 65.1153 27.9574 64.4745C26.9875 63.8337 25.8852 63.4208 24.733 63.2668C24.733 63.2668 21.133 63.2334 24.4663 65.4334C26.4105 66.6436 27.854 68.5131 28.533 70.7001C28.533 70.7001 30.6997 77.6668 40.8997 75.5001V81.6001C40.8997 82.5667 40.233 83.6668 38.3997 83.3334C31.1533 81.0291 24.8236 76.4873 20.3199 70.3606C15.8162 64.2338 13.3701 56.8373 13.333 49.2334C13.4385 39.6117 17.36 30.4256 24.2354 23.6938Z" fill="#F5F5F5"/>
</svg>
